<svg width="1920" height="1080" viewBox="0 0 1920 1080" fill="none" xmlns="http://www.w3.org/2000/svg">
  <rect width="1920" height="1080" fill="#030407"/>
  <radialGradient id="blueGlow" cx="50%" cy="45%" r="55%">
    <stop offset="0%" stop-color="#0A84FF" stop-opacity="0.38"/>
    <stop offset="45%" stop-color="#07111E" stop-opacity="0.22"/>
    <stop offset="100%" stop-color="#030407" stop-opacity="0"/>
  </radialGradient>
  <radialGradient id="pinkGlow" cx="78%" cy="25%" r="35%">
    <stop offset="0%" stop-color="#FF2DAA" stop-opacity="0.24"/>
    <stop offset="100%" stop-color="#030407" stop-opacity="0"/>
  </radialGradient>
  <rect width="1920" height="1080" fill="url(#blueGlow)"/>
  <rect width="1920" height="1080" fill="url(#pinkGlow)"/>
  <g opacity="0.28">
    <path d="M0 760 C420 690 760 675 1120 710 C1450 742 1690 735 1920 690" stroke="#FFFFFF" stroke-opacity="0.12" stroke-width="2"/>
    <path d="M0 835 C420 765 760 750 1120 785 C1450 817 1690 810 1920 765" stroke="#0A84FF" stroke-opacity="0.25" stroke-width="2"/>
    <path d="M0 912 C420 842 760 827 1120 862 C1450 894 1690 887 1920 842" stroke="#FFFFFF" stroke-opacity="0.09" stroke-width="2"/>
  </g>
  <g opacity="0.18">
    <line x1="180" y1="1080" x2="820" y2="520" stroke="#FFFFFF" stroke-width="1"/>
    <line x1="560" y1="1080" x2="940" y2="520" stroke="#FFFFFF" stroke-width="1"/>
    <line x1="980" y1="1080" x2="1040" y2="520" stroke="#FFFFFF" stroke-width="1"/>
    <line x1="1360" y1="1080" x2="1160" y2="520" stroke="#FFFFFF" stroke-width="1"/>
  </g>
  <rect width="1920" height="1080" fill="url(#vignette)"/>
  <defs>
    <radialGradient id="vignette" cx="50%" cy="50%" r="70%">
      <stop offset="55%" stop-color="#000000" stop-opacity="0"/>
      <stop offset="100%" stop-color="#000000" stop-opacity="0.82"/>
    </radialGradient>
  </defs>
</svg>